<svg
  id="Layer_1"
  xmlns="http://www.w3.org/2000/svg"
  viewBox="0 0 275 256"
  role="img"
  aria-label="Summer health logo"
>
  <path
    fill="#ffc220"
    d="M161.8,168.08l66.61-66.61-19.8-19.8-66.61,66.61V54.08h-28v94.2l-56.95-56.95-9.66-9.66-19.8,19.8,66.61,66.61H0v28H88c9.98,0,19.43-2.28,27.84-6.36,4.34-2.09,8.4-4.66,12.12-7.64,0,0,0-.01,.02-.02l-.15-.15c.06,.05,.11,.1,.17,.14,.06-.04,.11-.09,.17-.14l-.15,.15s.01,.02,.02,.02c3.72,2.98,7.78,5.55,12.12,7.64,8.41,4.08,17.86,6.36,27.84,6.36h88v-28h-94.2Z"
  />
</svg>
